<svg xmlns="http://www.w3.org/2000/svg" width="900" height="420" viewBox="0 0 900 420" role="img" aria-label="Quadpod Force-Time - Test 7">
  <rect width="100%" height="100%" fill="#ffffff"/>
  <text x="64" y="24" font-family="Arial, sans-serif" font-size="20" font-weight="700" fill="#15191d">Quadpod Force-Time - Test 7</text>
  <text x="64" y="42" font-family="Arial, sans-serif" font-size="12" fill="#66727f">Test 2 / 1 - peak 41.19 lb - samples 41</text>
  <g font-family="Arial, sans-serif" font-size="11" fill="#66727f">
    <line x1="64" y1="362.0" x2="876" y2="362.0" stroke="#e1e6eb"/><text x="54" y="366.0" text-anchor="end">0</text><line x1="64" y1="283.0" x2="876" y2="283.0" stroke="#e1e6eb"/><text x="54" y="287.0" text-anchor="end">11</text><line x1="64" y1="204.0" x2="876" y2="204.0" stroke="#e1e6eb"/><text x="54" y="208.0" text-anchor="end">23</text><line x1="64" y1="125.0" x2="876" y2="125.0" stroke="#e1e6eb"/><text x="54" y="129.0" text-anchor="end">34</text><line x1="64" y1="46.0" x2="876" y2="46.0" stroke="#e1e6eb"/><text x="54" y="50.0" text-anchor="end">45</text>
    <line x1="64.0" y1="46" x2="64.0" y2="362" stroke="#eef2f5"/><text x="64.0" y="398" text-anchor="middle">0.0</text><line x1="267.0" y1="46" x2="267.0" y2="362" stroke="#eef2f5"/><text x="267.0" y="398" text-anchor="middle">4.2</text><line x1="470.0" y1="46" x2="470.0" y2="362" stroke="#eef2f5"/><text x="470.0" y="398" text-anchor="middle">8.4</text><line x1="673.0" y1="46" x2="673.0" y2="362" stroke="#eef2f5"/><text x="673.0" y="398" text-anchor="middle">12.6</text><line x1="876.0" y1="46" x2="876.0" y2="362" stroke="#eef2f5"/><text x="876.0" y="398" text-anchor="middle">16.8</text>
  </g>
  <rect x="64" y="46" width="812" height="316" fill="none" stroke="#9aa7b2"/>
  <polyline fill="none" stroke="#136f63" stroke-width="3" points="72.5,365.0 91.3,360.8 111.4,328.4 131.5,274.6 151.7,218.9 171.8,162.9 191.9,109.5 212.0,82.1 232.1,77.6 252.2,75.5 272.4,74.7 292.5,75.8 312.6,81.4 332.7,87.6 352.8,95.5 373.0,106.0 393.1,125.9 413.2,148.7 433.3,177.0 453.4,211.7 473.6,248.2 493.7,279.5 513.8,309.1 533.9,332.2 554.0,346.8 574.2,356.1 594.3,360.8 614.4,361.9 634.5,362.0 654.7,361.9 674.8,361.9 694.9,361.9 715.0,361.9 735.1,361.9 755.3,361.9 775.4,361.9 795.5,361.9 815.6,361.9 835.7,362.0 855.9,362.0 876.0,362.0"/>
  <text x="470.0" y="414" text-anchor="middle" font-family="Arial, sans-serif" font-size="12" fill="#66727f">Elapsed seconds</text>
  <text transform="translate(18 204.0) rotate(-90)" text-anchor="middle" font-family="Arial, sans-serif" font-size="12" fill="#66727f">Force (lbs)</text>
</svg>
