<svg xmlns="http://www.w3.org/2000/svg" width="900" height="420" viewBox="0 0 900 420" role="img" aria-label="Quadpod Force-Time - Test 6">
  <rect width="100%" height="100%" fill="#ffffff"/>
  <text x="64" y="24" font-family="Arial, sans-serif" font-size="20" font-weight="700" fill="#15191d">Quadpod Force-Time - Test 6</text>
  <text x="64" y="42" font-family="Arial, sans-serif" font-size="12" fill="#66727f">Test 2 / 1 - peak 1.25 lb - samples 193</text>
  <g font-family="Arial, sans-serif" font-size="11" fill="#66727f">
    <line x1="64" y1="362.0" x2="876" y2="362.0" stroke="#e1e6eb"/><text x="54" y="366.0" text-anchor="end">0</text><line x1="64" y1="283.0" x2="876" y2="283.0" stroke="#e1e6eb"/><text x="54" y="287.0" text-anchor="end">2</text><line x1="64" y1="204.0" x2="876" y2="204.0" stroke="#e1e6eb"/><text x="54" y="208.0" text-anchor="end">5</text><line x1="64" y1="125.0" x2="876" y2="125.0" stroke="#e1e6eb"/><text x="54" y="129.0" text-anchor="end">8</text><line x1="64" y1="46.0" x2="876" y2="46.0" stroke="#e1e6eb"/><text x="54" y="50.0" text-anchor="end">10</text>
    <line x1="64.0" y1="46" x2="64.0" y2="362" stroke="#eef2f5"/><text x="64.0" y="398" text-anchor="middle">0.0</text><line x1="267.0" y1="46" x2="267.0" y2="362" stroke="#eef2f5"/><text x="267.0" y="398" text-anchor="middle">20.0</text><line x1="470.0" y1="46" x2="470.0" y2="362" stroke="#eef2f5"/><text x="470.0" y="398" text-anchor="middle">40.0</text><line x1="673.0" y1="46" x2="673.0" y2="362" stroke="#eef2f5"/><text x="673.0" y="398" text-anchor="middle">60.0</text><line x1="876.0" y1="46" x2="876.0" y2="362" stroke="#eef2f5"/><text x="876.0" y="398" text-anchor="middle">80.0</text>
  </g>
  <rect x="64" y="46" width="812" height="316" fill="none" stroke="#9aa7b2"/>
  <polyline fill="none" stroke="#136f63" stroke-width="3" points="64.7,372.4 68.4,367.0 72.7,356.5 76.9,346.1 81.1,337.0 85.4,327.0 89.6,322.5 93.8,323.6 98.0,324.0 102.3,323.4 106.5,323.8 110.7,323.8 115.0,323.7 119.2,324.0 123.4,324.0 127.6,324.1 131.9,324.2 136.1,324.2 140.3,324.2 144.6,324.2 148.8,324.2 153.0,324.2 157.2,324.2 161.5,324.2 165.7,324.3 169.9,324.3 174.2,324.3 178.4,324.3 182.6,324.3 186.8,324.3 191.1,324.3 195.3,324.3 199.5,324.4 203.7,324.5 208.0,324.5 212.2,324.6 216.4,324.6 220.7,324.6 224.9,324.7 229.1,324.7 233.3,324.8 237.6,324.8 241.8,324.8 246.0,324.8 250.3,324.8 254.5,324.8 258.7,324.8 262.9,324.8 267.2,324.9 271.4,324.9 275.6,324.9 279.8,324.9 284.1,324.9 288.3,324.9 292.5,324.9 296.8,324.9 301.0,324.9 305.2,324.8 309.4,324.8 313.7,324.7 317.9,324.8 322.1,324.8 326.4,324.8 330.6,324.9 334.8,324.9 339.0,324.9 343.3,324.9 347.5,324.9 351.7,324.9 356.0,324.9 360.2,325.0 364.4,325.0 368.6,325.0 372.9,325.0 377.1,325.1 381.3,325.1 385.5,325.2 389.8,325.2 394.0,325.2 398.2,325.2 402.5,325.2 406.7,325.2 410.9,325.2 415.1,325.2 419.4,325.2 423.6,325.2 427.8,325.2 432.0,325.2 436.3,325.1 440.5,325.1 444.7,325.1 449.0,325.1 453.2,325.1 457.4,325.2 461.6,325.2 465.9,325.2 470.1,325.2 474.3,325.2 478.6,325.1 482.8,325.1 487.0,325.1 491.2,325.2 495.5,325.2 499.7,325.2 503.9,325.2 508.1,325.2 512.4,325.1 516.6,325.1 520.8,325.0 525.1,325.0 529.3,325.1 533.5,325.1 537.7,325.1 542.0,325.1 546.2,325.2 550.4,325.2 554.7,325.1 558.9,325.2 563.1,325.2 567.3,325.2 571.6,325.2 575.8,325.2 580.0,325.2 584.2,325.2 588.5,325.2 592.7,325.2 596.9,325.2 601.2,325.2 605.4,325.2 609.6,325.2 613.8,325.2 618.1,325.3 622.3,325.3 626.5,325.4 630.8,325.3 635.0,325.3 639.2,325.3 643.4,325.3 647.7,325.3 651.9,325.3 656.1,325.3 660.4,325.3 664.6,325.3 668.8,325.3 673.0,325.2 677.3,325.2 681.5,325.2 685.7,325.2 690.0,325.2 694.2,325.1 698.4,325.1 702.6,325.1 706.9,325.2 711.1,325.2 715.3,325.2 719.6,325.2 723.8,325.3 728.0,325.4 732.2,325.5 736.5,325.5 740.7,325.5 744.9,325.5 749.1,325.5 753.4,325.4 757.6,325.5 761.8,325.5 766.1,325.5 770.3,325.5 774.5,325.5 778.7,325.5 783.0,325.5 787.2,325.5 791.4,325.5 795.7,325.5 799.9,325.4 804.1,325.4 808.3,325.4 812.6,325.3 816.8,325.3 821.0,325.3 825.3,325.4 829.5,325.4 833.7,325.5 837.9,325.5 842.2,325.5 846.4,325.6 850.6,325.6 854.9,325.5 859.1,325.5 863.3,325.5 867.5,325.5 871.8,325.5 876.0,325.5"/>
  <text x="470.0" y="414" text-anchor="middle" font-family="Arial, sans-serif" font-size="12" fill="#66727f">Elapsed seconds</text>
  <text transform="translate(18 204.0) rotate(-90)" text-anchor="middle" font-family="Arial, sans-serif" font-size="12" fill="#66727f">Force (lbs)</text>
</svg>
